<?xml version="1.0" encoding="utf-8"?>
<!-- Generator: Adobe Illustrator 15.0.0, SVG Export Plug-In . SVG Version: 6.00 Build 0)  -->
<!DOCTYPE svg PUBLIC "-//W3C//DTD SVG 1.1//EN" "http://www.w3.org/Graphics/SVG/1.1/DTD/svg11.dtd">
<svg version="1.1" id="Livello_1" xmlns="http://www.w3.org/2000/svg" xmlns:xlink="http://www.w3.org/1999/xlink" x="0px" y="0px"
	 width="111px" height="149px" viewBox="0 0 111 149" enable-background="new 0 0 111 149" xml:space="preserve">
<g>
	<path fill="#FFFFFF" d="M21.362,11.487c-0.286,12.56,1.455,27.242,14.739,41.377c13.283,14.137,16.96,19.733,16.896,22.52
		c-0.116,5.134-17.634,20.006-22.613,26.118c-4.982,6.113-10.963,15.661-11.385,34.213l69.143,1.571
		c0.422-18.552-5.119-28.362-9.817-34.694S56.81,80.403,56.921,75.473c0.063-2.787,3.991-8.209,17.903-21.729
		c13.911-13.518,16.317-28.105,16.603-40.666L21.362,11.487z"/>
	<path d="M89.044,138.229l-70.986-1.613l0.021-0.922c0.426-18.737,6.418-28.427,11.591-34.774c1.663-2.04,4.711-5.054,7.938-8.244
		c6.076-6.006,14.398-14.232,14.469-17.313c0.063-2.802-5.07-9.546-16.646-21.867C21.631,38.812,20.171,23.321,20.44,11.466
		l0.021-0.922l71.909,1.634L92.35,13.1c-0.27,11.855-2.432,27.263-16.883,41.306C63.342,66.188,57.906,72.692,57.843,75.494
		c-0.066,2.938,7.851,11.568,13.632,17.868c3.094,3.374,6.018,6.56,7.591,8.681c4.879,6.576,10.425,16.527,9.999,35.265
		L89.044,138.229z M19.948,134.814l67.289,1.529c0.216-17.582-5.029-26.971-9.653-33.203c-1.516-2.043-4.407-5.195-7.469-8.533
		C61.801,85.547,55.922,78.869,56,75.452c0.065-2.885,3.183-7.793,18.182-22.369c13.542-13.16,15.93-27.091,16.299-39.104
		l-68.214-1.55c-0.178,12.017,1.575,26.042,14.506,39.803C51.094,67.475,53.985,72.52,53.92,75.405
		c-0.08,3.552-6.274,9.942-15.016,18.583c-3.191,3.155-6.207,6.135-7.805,8.097C26.196,108.1,20.531,117.241,19.948,134.814z"/>
</g>
<path d="M106.802,11.044c-0.033,1.443-1.229,2.586-2.673,2.554L9.566,11.449c-1.443-0.033-2.587-1.229-2.554-2.672l0.096-4.223
	C7.142,3.111,8.338,1.968,9.78,2l94.563,2.149c1.443,0.033,2.586,1.229,2.554,2.672L106.802,11.044z"/>
<path d="M103.79,143.559c-0.033,1.444-1.229,2.587-2.672,2.555l-94.563-2.149c-1.443-0.033-2.586-1.229-2.554-2.673l0.096-4.222
	c0.033-1.444,1.229-2.587,2.673-2.555l94.562,2.149c1.443,0.033,2.587,1.229,2.554,2.673L103.79,143.559z"/>
</svg>
