<?xml version="1.0" encoding="utf-8"?>
<!-- Generator: Adobe Illustrator 15.0.0, SVG Export Plug-In . SVG Version: 6.00 Build 0)  -->
<!DOCTYPE svg PUBLIC "-//W3C//DTD SVG 1.1//EN" "http://www.w3.org/Graphics/SVG/1.1/DTD/svg11.dtd">
<svg version="1.1" id="Livello_1" xmlns="http://www.w3.org/2000/svg" xmlns:xlink="http://www.w3.org/1999/xlink" x="0px" y="0px"
	 width="337.095px" height="236.594px" viewBox="0 0 337.095 236.594" enable-background="new 0 0 337.095 236.594"
	 xml:space="preserve">
<path fill="#FFFFFF" d="M334,117.424C334,177.13,255.724,234,167,234S0,177.13,0,117.424C0,57.716,78.276,0,167,0
	S334,57.716,334,117.424z"/>
<line fill="none" stroke="#000000" stroke-width="5" stroke-miterlimit="10" x1="18.164" y1="112.565" x2="55.67" y2="134.268"/>
<line fill="none" stroke="#000000" stroke-width="5" stroke-miterlimit="10" x1="53.922" y1="73.417" x2="81.412" y2="106.916"/>
<line fill="none" stroke="#000000" stroke-width="5" stroke-miterlimit="10" x1="101.078" y1="44.316" x2="117.256" y2="84.517"/>
<line fill="none" stroke="#000000" stroke-width="5" stroke-miterlimit="10" x1="320.259" y1="112.565" x2="282.752" y2="134.268"/>
<line fill="none" stroke="#000000" stroke-width="5" stroke-miterlimit="10" x1="284.5" y1="73.417" x2="257.011" y2="106.916"/>
<line fill="none" stroke="#000000" stroke-width="5" stroke-miterlimit="10" x1="237.345" y1="44.316" x2="221.167" y2="84.517"/>
<line fill="none" stroke="#000000" stroke-width="5" stroke-miterlimit="10" x1="166.87" y1="29.75" x2="166.964" y2="73.084"/>
<path fill="#E13200" stroke="#FF0000" stroke-width="2" stroke-miterlimit="10" d="M168.396,188.075L274.811,85.69
	c0.319-0.307,0.826-0.297,1.132,0.021c0.288,0.3,0.294,0.768,0.031,1.077l-96.087,112.132c-2.843,3.316-7.836,3.702-11.153,0.859
	c-3.317-2.842-3.702-7.835-0.859-11.151C168.039,188.438,168.219,188.246,168.396,188.075z"/>
<g>
	
		<linearGradient id="SVGID_1_" gradientUnits="userSpaceOnUse" x1="39.9199" y1="109.6758" x2="300.7119" y2="109.6758" gradientTransform="matrix(0.9968 -0.0797 0.0797 0.9968 -19.9863 21.4634)">
		<stop  offset="0" style="stop-color:#FFFFFF;stop-opacity:0"/>
		<stop  offset="1" style="stop-color:#FF0000"/>
	</linearGradient>
	<path fill="url(#SVGID_1_)" d="M286,75.5c-0.303-3.797-36.76-52.959-130-45.5c-52.071,4.166-101.41,32.529-129.5,72l143.777,101.69
		L286,75.5z"/>
</g>
</svg>
