<?xml version="1.0" encoding="utf-8"?>
<!-- Generator: Adobe Illustrator 15.0.0, SVG Export Plug-In . SVG Version: 6.00 Build 0)  -->
<!DOCTYPE svg PUBLIC "-//W3C//DTD SVG 1.1//EN" "http://www.w3.org/Graphics/SVG/1.1/DTD/svg11.dtd">
<svg version="1.1" id="Livello_2" xmlns="http://www.w3.org/2000/svg" xmlns:xlink="http://www.w3.org/1999/xlink" x="0px" y="0px"
	 width="595.28px" height="304px" viewBox="0 0 595.28 304" enable-background="new 0 0 595.28 304" xml:space="preserve">
<polygon fill="#FFFFFF" points="297.314,75.681 441.934,149.242 297.732,222.543 153.438,149.113 "/>
<g>
	<g>
		<g>
			<linearGradient id="SVGID_1_" gradientUnits="userSpaceOnUse" x1="154.5513" y1="3.5977" x2="198.7355" y2="26.6644">
				<stop  offset="0" style="stop-color:#000000;stop-opacity:0"/>
				<stop  offset="1" style="stop-color:#000000"/>
			</linearGradient>
			<polygon fill="url(#SVGID_1_)" points="165.201,11.973 150.706,4.638 153.053,0 167.547,7.334 			"/>
		</g>
		<linearGradient id="SVGID_2_" gradientUnits="userSpaceOnUse" x1="588.1064" y1="222.2637" x2="546.8453" y2="202.4453">
			<stop  offset="0" style="stop-color:#000000;stop-opacity:0"/>
			<stop  offset="1" style="stop-color:#000000"/>
		</linearGradient>
		<polygon fill="url(#SVGID_2_)" points="570.969,217.277 542.79,203.019 545.137,198.381 573.315,212.638 		"/>
		
			<rect x="508.449" y="188.121" transform="matrix(0.8923 0.4515 -0.4515 0.8923 142.5692 -216.1321)" width="31.58" height="5.198"/>
		
			<rect x="474.633" y="171.013" transform="matrix(0.8923 0.4514 -0.4514 0.8923 131.1927 -202.6989)" width="31.582" height="5.198"/>
		<rect x="440.821" y="153.904" transform="matrix(0.8923 0.4515 -0.4515 0.8923 119.842 -189.291)" width="31.58" height="5.198"/>
		
			<rect x="407.007" y="136.795" transform="matrix(0.8923 0.4515 -0.4515 0.8923 108.471 -175.863)" width="31.579" height="5.198"/>
		
			<rect x="373.193" y="119.686" transform="matrix(0.8923 0.4515 -0.4515 0.8923 97.1089 -162.444)" width="31.579" height="5.198"/>
		
			<rect x="339.378" y="102.577" transform="matrix(0.8923 0.4515 -0.4515 0.8923 85.7386 -149.0169)" width="31.579" height="5.198"/>
		
			<rect x="305.564" y="85.468" transform="matrix(0.8923 0.4515 -0.4515 0.8923 74.3694 -135.5906)" width="31.581" height="5.199"/>
		<rect x="271.75" y="68.36" transform="matrix(0.8923 0.4515 -0.4515 0.8923 63.012 -122.1772)" width="31.58" height="5.198"/>
		
			<rect x="237.936" y="51.251" transform="matrix(0.8923 0.4514 -0.4514 0.8923 51.6359 -108.7425)" width="31.581" height="5.199"/>
		<rect x="204.122" y="34.143" transform="matrix(0.8923 0.4515 -0.4515 0.8923 40.2772 -95.3286)" width="31.58" height="5.198"/>
		<linearGradient id="SVGID_3_" gradientUnits="userSpaceOnUse" x1="154.7295" y1="3.2563" x2="198.9142" y2="26.3234">
			<stop  offset="0" style="stop-color:#000000;stop-opacity:0"/>
			<stop  offset="1" style="stop-color:#000000"/>
		</linearGradient>
		<polygon fill="url(#SVGID_3_)" points="199.014,29.081 170.836,14.823 173.183,10.185 201.36,24.442 		"/>
		<g>
			<linearGradient id="SVGID_4_" gradientUnits="userSpaceOnUse" x1="587.835" y1="222.8262" x2="546.5795" y2="203.0106">
				<stop  offset="0" style="stop-color:#000000;stop-opacity:0"/>
				<stop  offset="1" style="stop-color:#000000"/>
			</linearGradient>
			<polygon fill="url(#SVGID_4_)" points="591.099,227.462 576.604,220.129 578.951,215.49 593.445,222.823 			"/>
		</g>
	</g>
	<g>
		<g>
			<linearGradient id="SVGID_5_" gradientUnits="userSpaceOnUse" x1="11.2842" y1="78.6201" x2="56.1173" y2="102.986">
				<stop  offset="0" style="stop-color:#000000;stop-opacity:0"/>
				<stop  offset="1" style="stop-color:#000000"/>
			</linearGradient>
			<polygon fill="url(#SVGID_5_)" points="19.093,85.559 4.606,78.211 6.958,73.575 21.445,80.923 			"/>
		</g>
		<linearGradient id="SVGID_6_" gradientUnits="userSpaceOnUse" x1="440.3369" y1="295.2129" x2="399.0768" y2="275.7199">
			<stop  offset="0" style="stop-color:#000000;stop-opacity:0"/>
			<stop  offset="1" style="stop-color:#000000"/>
		</linearGradient>
		<polygon fill="url(#SVGID_6_)" points="421.767,289.799 393.804,275.616 396.155,270.98 424.118,285.164 		"/>
		
			<rect x="359.728" y="260.77" transform="matrix(0.8919 0.4523 -0.4523 0.8919 159.7281 -141.3231)" width="31.355" height="5.199"/>
		
			<rect x="326.171" y="243.75" transform="matrix(0.8918 0.4523 -0.4523 0.8918 148.4057 -127.988)" width="31.356" height="5.198"/>
		
			<rect x="292.615" y="226.73" transform="matrix(0.8918 0.4524 -0.4524 0.8918 137.0921 -114.6572)" width="31.356" height="5.199"/>
		
			<rect x="259.058" y="209.71" transform="matrix(0.8918 0.4523 -0.4523 0.8918 125.7475 -101.3107)" width="31.355" height="5.199"/>
		<rect x="225.503" y="192.69" transform="matrix(0.8919 0.4523 -0.4523 0.8919 114.4176 -87.972)" width="31.355" height="5.198"/>
		
			<rect x="191.946" y="175.671" transform="matrix(0.8918 0.4524 -0.4524 0.8918 103.0972 -74.6373)" width="31.355" height="5.198"/>
		<rect x="158.39" y="158.65" transform="matrix(0.8918 0.4523 -0.4523 0.8918 91.7638 -61.2975)" width="31.355" height="5.199"/>
		
			<rect x="124.834" y="141.631" transform="matrix(0.8918 0.4524 -0.4524 0.8918 80.4444 -47.9621)" width="31.355" height="5.198"/>
		<rect x="91.279" y="124.61" transform="matrix(0.8919 0.4523 -0.4523 0.8919 69.1072 -34.6216)" width="31.354" height="5.199"/>
		<rect x="57.722" y="107.59" transform="matrix(0.8918 0.4524 -0.4524 0.8918 57.7833 -21.2843)" width="31.355" height="5.198"/>
		<linearGradient id="SVGID_7_" gradientUnits="userSpaceOnUse" x1="11.6914" y1="77.8687" x2="56.5272" y2="102.2359">
			<stop  offset="0" style="stop-color:#000000;stop-opacity:0"/>
			<stop  offset="1" style="stop-color:#000000"/>
		</linearGradient>
		<polygon fill="url(#SVGID_7_)" points="52.649,102.579 24.686,88.396 27.038,83.76 55.001,97.943 		"/>
		<g>
			<linearGradient id="SVGID_8_" gradientUnits="userSpaceOnUse" x1="439.9766" y1="295.9746" x2="398.7163" y2="276.4816">
				<stop  offset="0" style="stop-color:#000000;stop-opacity:0"/>
				<stop  offset="1" style="stop-color:#000000"/>
			</linearGradient>
			<polygon fill="url(#SVGID_8_)" points="441.847,299.984 427.358,292.636 429.711,288 444.197,295.348 			"/>
		</g>
	</g>
	<g>
		
			<rect x="224.164" y="111.209" transform="matrix(0.8924 0.4513 -0.4513 0.8924 91.3997 -155.6267)" width="295.621" height="5.198"/>
	</g>
	<g>
		<rect x="75.737" y="192.645" transform="matrix(0.8918 0.4524 -0.4524 0.8918 114.4532 -88.08)" width="331.272" height="5.198"/>
	</g>
</g>
<g>
	<g>
		<g>
			<linearGradient id="SVGID_9_" gradientUnits="userSpaceOnUse" x1="441.9014" y1="4.4771" x2="400.3144" y2="25.5954">
				<stop  offset="0" style="stop-color:#000000;stop-opacity:0"/>
				<stop  offset="1" style="stop-color:#000000"/>
			</linearGradient>
			<polygon fill="url(#SVGID_9_)" points="432.854,11.973 430.509,7.334 445.002,0 447.35,4.638 			"/>
		</g>
		<linearGradient id="SVGID_10_" gradientUnits="userSpaceOnUse" x1="13.3696" y1="221.145" x2="53.655" y2="201.0023">
			<stop  offset="0" style="stop-color:#000000;stop-opacity:0"/>
			<stop  offset="1" style="stop-color:#000000"/>
		</linearGradient>
		<polygon fill="url(#SVGID_10_)" points="27.086,217.277 24.74,212.638 52.918,198.381 55.265,203.019 		"/>
		<rect x="71.217" y="174.931" transform="matrix(0.4514 0.8923 -0.8923 0.4514 210.6825 38.7649)" width="5.198" height="31.579"/>
		<rect x="105.031" y="157.822" transform="matrix(0.4515 0.8923 -0.8923 0.4515 213.9457 -0.8083)" width="5.199" height="31.58"/>
		
			<rect x="138.845" y="140.713" transform="matrix(0.4514 0.8923 -0.8923 0.4514 217.2437 -40.3578)" width="5.198" height="31.58"/>
		
			<rect x="172.659" y="123.604" transform="matrix(0.4513 0.8924 -0.8924 0.4513 220.5452 -79.912)" width="5.198" height="31.579"/>
		
			<rect x="206.473" y="106.495" transform="matrix(0.4513 0.8924 -0.8924 0.4513 223.8307 -119.473)" width="5.198" height="31.58"/>
		
			<rect x="240.287" y="89.386" transform="matrix(0.4515 0.8923 -0.8923 0.4515 227.0602 -159.0307)" width="5.198" height="31.581"/>
		
			<rect x="274.101" y="72.277" transform="matrix(0.4516 0.8922 -0.8922 0.4516 230.317 -198.5813)" width="5.198" height="31.581"/>
		<rect x="307.916" y="55.169" transform="matrix(0.4515 0.8923 -0.8923 0.4515 233.6479 -238.146)" width="5.198" height="31.58"/>
		
			<rect x="341.729" y="38.06" transform="matrix(0.4513 0.8924 -0.8924 0.4513 236.9854 -277.7207)" width="5.198" height="31.579"/>
		
			<rect x="375.543" y="20.952" transform="matrix(0.4514 0.8923 -0.8923 0.4514 240.2428 -317.2711)" width="5.199" height="31.579"/>
		<linearGradient id="SVGID_11_" gradientUnits="userSpaceOnUse" x1="441.8818" y1="4.4385" x2="400.2979" y2="25.5553">
			<stop  offset="0" style="stop-color:#000000;stop-opacity:0"/>
			<stop  offset="1" style="stop-color:#000000"/>
		</linearGradient>
		<polygon fill="url(#SVGID_11_)" points="399.041,29.081 396.694,24.442 424.872,10.185 427.219,14.823 		"/>
		<g>
			<linearGradient id="SVGID_12_" gradientUnits="userSpaceOnUse" x1="13.4336" y1="221.2754" x2="53.7192" y2="201.1326">
				<stop  offset="0" style="stop-color:#000000;stop-opacity:0"/>
				<stop  offset="1" style="stop-color:#000000"/>
			</linearGradient>
			<polygon fill="url(#SVGID_12_)" points="6.956,227.462 4.609,222.823 19.104,215.49 21.45,220.129 			"/>
		</g>
	</g>
	<g>
		<g>
			<linearGradient id="SVGID_13_" gradientUnits="userSpaceOnUse" x1="589.4629" y1="77.3818" x2="545.2769" y2="99.15">
				<stop  offset="0" style="stop-color:#000000;stop-opacity:0"/>
				<stop  offset="1" style="stop-color:#000000"/>
			</linearGradient>
			<polygon fill="url(#SVGID_13_)" points="578.961,85.559 576.609,80.923 591.097,73.575 593.448,78.211 			"/>
		</g>
		<linearGradient id="SVGID_14_" gradientUnits="userSpaceOnUse" x1="159.9771" y1="295.0664" x2="199.9382" y2="274.9234">
			<stop  offset="0" style="stop-color:#000000;stop-opacity:0"/>
			<stop  offset="1" style="stop-color:#000000"/>
		</linearGradient>
		<polygon fill="url(#SVGID_14_)" points="176.288,289.799 173.937,285.164 201.899,270.98 204.251,275.616 		"/>
		
			<rect x="220.051" y="247.692" transform="matrix(0.4524 0.8918 -0.8918 0.4524 356.8026 -54.3401)" width="5.198" height="31.354"/>
		
			<rect x="253.607" y="230.672" transform="matrix(0.4525 0.8918 -0.8918 0.4525 359.9712 -93.595)" width="5.198" height="31.354"/>
		
			<rect x="287.163" y="213.653" transform="matrix(0.4523 0.8919 -0.8919 0.4523 363.2275 -132.8263)" width="5.199" height="31.354"/>
		
			<rect x="320.719" y="196.632" transform="matrix(0.4524 0.8918 -0.8918 0.4524 366.3935 -172.0786)" width="5.198" height="31.355"/>
		
			<rect x="354.275" y="179.612" transform="matrix(0.4524 0.8918 -0.8918 0.4524 369.5901 -211.3251)" width="5.198" height="31.354"/>
		
			<rect x="387.831" y="162.593" transform="matrix(0.4524 0.8918 -0.8918 0.4524 372.8059 -250.5724)" width="5.199" height="31.354"/>
		
			<rect x="421.388" y="145.571" transform="matrix(0.4524 0.8918 -0.8918 0.4524 375.9839 -289.8184)" width="5.198" height="31.355"/>
		
			<rect x="454.944" y="128.552" transform="matrix(0.4522 0.8919 -0.8919 0.4522 379.2607 -329.0774)" width="5.198" height="31.355"/>
		
			<rect x="488.5" y="111.532" transform="matrix(0.4524 0.8918 -0.8918 0.4524 382.3778 -368.3109)" width="5.198" height="31.355"/>
		
			<rect x="522.056" y="94.512" transform="matrix(0.4524 0.8918 -0.8918 0.4524 385.5746 -407.5567)" width="5.198" height="31.355"/>
		<linearGradient id="SVGID_15_" gradientUnits="userSpaceOnUse" x1="589.6201" y1="77.6953" x2="545.4343" y2="99.4633">
			<stop  offset="0" style="stop-color:#000000;stop-opacity:0"/>
			<stop  offset="1" style="stop-color:#000000"/>
		</linearGradient>
		<polygon fill="url(#SVGID_15_)" points="545.404,102.579 543.054,97.943 571.018,83.76 573.369,88.396 		"/>
		<g>
			<linearGradient id="SVGID_16_" gradientUnits="userSpaceOnUse" x1="160.0112" y1="295.1333" x2="199.973" y2="274.99">
				<stop  offset="0" style="stop-color:#000000;stop-opacity:0"/>
				<stop  offset="1" style="stop-color:#000000"/>
			</linearGradient>
			<polygon fill="url(#SVGID_16_)" points="156.208,299.984 153.857,295.348 168.344,288 170.696,292.636 			"/>
		</g>
	</g>
	<g>
		<rect x="223.48" y="-34.003" transform="matrix(0.4513 0.8924 -0.8924 0.4513 225.6073 -139.3)" width="5.198" height="295.622"/>
	</g>
	<g>
		
			<rect x="354.083" y="29.608" transform="matrix(0.4524 0.8918 -0.8918 0.4524 369.4443 -211.179)" width="5.198" height="331.272"/>
	</g>
</g>
</svg>
